<svg xmlns="http://www.w3.org/2000/svg" xmlns:xlink="http://www.w3.org/1999/xlink" width="1024" height="1024" node-id="1" sillyvg="true" template-height="1024" template-width="1024" version="1.1" viewBox="0 0 1024 1024"><defs node-id="85"><linearGradient id="SVGID_1_" x1="3004.659" x2="3830.691" y1="552.793" y2="552.793" gradientUnits="objectBoundingBox" node-id="6" spreadMethod="pad"><stop offset=".005" stop-color="#c1b7fe"/><stop offset="1" stop-color="#7d6ff8"/></linearGradient><linearGradient id="SVGID_2_" x1="3437.372" x2="2961.711" y1="915.476" y2="542.66" gradientUnits="objectBoundingBox" node-id="10" spreadMethod="pad"><stop offset=".005" stop-color="#7a69f6"/><stop offset="1" stop-color="#5847d6"/></linearGradient><linearGradient id="SVGID_3_" x1="3417.675" x2="3830.691" y1="738.18" y2="738.18" gradientUnits="objectBoundingBox" node-id="14" spreadMethod="pad"><stop offset=".005" stop-color="#7966fc"/><stop offset="1" stop-color="#8c7bfb"/></linearGradient><linearGradient id="SVGID_4_" x1="3004.659" x2="3065.397" y1="703.894" y2="703.894" gradientUnits="objectBoundingBox" node-id="25" spreadMethod="pad"><stop offset=".005" stop-color="#c5bafe"/><stop offset="1" stop-color="#8173f7"/></linearGradient><linearGradient id="SVGID_5_" x1="3004.659" x2="3065.397" y1="673.252" y2="673.252" gradientUnits="objectBoundingBox" node-id="29" spreadMethod="pad"><stop offset=".005" stop-color="#c5bafe"/><stop offset="1" stop-color="#8173f7"/></linearGradient><linearGradient id="SVGID_6_" x1="3074.923" x2="3464.889" y1="471.829" y2="471.829" gradientUnits="objectBoundingBox" node-id="33" spreadMethod="pad"><stop offset=".005" stop-color="#7a69f6"/><stop offset="1" stop-color="#5847d6"/></linearGradient><linearGradient id="SVGID_7_" x1="3196.398" x2="3586.365" y1="533.115" y2="533.115" gradientUnits="objectBoundingBox" node-id="37" spreadMethod="pad"><stop offset=".005" stop-color="#7a69f6"/><stop offset="1" stop-color="#5847d6"/></linearGradient><linearGradient id="SVGID_8_" x1="3342.168" x2="3732.135" y1="594.4" y2="594.4" gradientUnits="objectBoundingBox" node-id="41" spreadMethod="pad"><stop offset=".005" stop-color="#7a69f6"/><stop offset="1" stop-color="#5847d6"/></linearGradient><linearGradient id="SVGID_9_" x1="3287.66" x2="3326.128" y1="395.918" y2="470.289" gradientUnits="objectBoundingBox" node-id="46" spreadMethod="pad"><stop offset=".005" stop-color="#c1b7fe" stop-opacity="0"/><stop offset="1" stop-color="#7d6ff8"/></linearGradient><linearGradient id="SVGID_10_" x1="3259.757" x2="3441.97" y1="366.221" y2="366.221" gradientUnits="objectBoundingBox" node-id="53" spreadMethod="pad"><stop offset=".005" stop-color="#c5bafe"/><stop offset="1" stop-color="#e9e6fc"/></linearGradient><linearGradient id="SVGID_11_" x1="3211.167" x2="3441.97" y1="325.713" y2="325.713" gradientUnits="objectBoundingBox" node-id="57" spreadMethod="pad"><stop offset=".005" stop-color="#c5bafe"/><stop offset="1" stop-color="#e9e6fc"/></linearGradient><linearGradient id="SVGID_12_" x1="3409.135" x2="3447.603" y1="457.203" y2="531.574" gradientUnits="objectBoundingBox" node-id="62" spreadMethod="pad"><stop offset=".005" stop-color="#c1b7fe" stop-opacity="0"/><stop offset="1" stop-color="#7d6ff8"/></linearGradient><linearGradient id="SVGID_13_" x1="3381.233" x2="3563.446" y1="427.506" y2="427.506" gradientUnits="objectBoundingBox" node-id="69" spreadMethod="pad"><stop offset=".005" stop-color="#c5bafe"/><stop offset="1" stop-color="#e9e6fc"/></linearGradient><linearGradient id="SVGID_14_" x1="3554.905" x2="3593.373" y1="518.488" y2="592.859" gradientUnits="objectBoundingBox" node-id="75" spreadMethod="pad"><stop offset=".005" stop-color="#c1b7fe" stop-opacity="0"/><stop offset="1" stop-color="#7d6ff8"/></linearGradient></defs><g node-id="288"><path fill="url(#SVGID_1_)" fill-rule="nonzero" stroke="none" d="M 531.40 359.20 L 118.40 540.30 L 531.40 746.40 L 944.50 540.30 Z" group-id="1" node-id="176" target-height="387.2" target-width="826.1" target-x="118.4" target-y="359.2"/><path fill="url(#SVGID_2_)" fill-rule="nonzero" stroke="none" d="M 118.40 540.30 L 118.40 730.00 L 531.40 936.00 L 531.40 746.40 Z" group-id="1" node-id="178" target-height="395.7" target-width="413" target-x="118.4" target-y="540.3"/><path fill="url(#SVGID_3_)" fill-rule="nonzero" stroke="none" d="M 944.50 540.30 L 944.50 730.00 L 531.40 936.00 L 531.40 746.40 Z" group-id="1" node-id="180" target-height="395.7" target-width="413.1" target-x="531.4" target-y="540.3"/><g node-id="292"><g node-id="303"><path fill="#c2bdfc" fill-rule="nonzero" stroke="none" d="M 378.60 705.50 L 381.60 708.80 L 384.00 712.00 L 385.90 715.30 L 387.40 718.70 L 388.30 721.90 L 388.60 724.80 L 388.50 727.00 L 387.20 730.60 L 386.00 732.10 L 382.90 734.20 L 378.80 735.00 L 375.80 734.80 L 372.70 734.00 L 369.20 732.70 L 365.80 730.90 L 362.50 728.60 L 359.20 725.70 L 356.20 722.50 L 353.80 719.20 L 351.90 716.00 L 350.40 712.50 L 349.50 709.40 L 349.20 706.40 L 349.40 704.20 L 350.60 700.60 L 351.80 699.10 L 354.90 697.00 L 359.00 696.30 L 362.00 696.50 L 365.20 697.20 L 368.70 698.60 L 372.00 700.40 L 375.30 702.70 L 378.60 705.50 Z" group-id="1,5,16" node-id="186" target-height="38.7" target-width="39.4" target-x="349.2" target-y="696.3"/></g><g node-id="304"><path fill="#c2bdfc" fill-rule="nonzero" stroke="none" d="M 433.70 732.00 L 436.70 735.20 L 439.10 738.40 L 441.00 741.70 L 442.50 745.20 L 443.40 748.30 L 443.70 751.20 L 443.50 753.50 L 443.10 755.40 L 441.10 758.60 L 438.00 760.60 L 436.10 761.20 L 433.90 761.40 L 430.90 761.20 L 427.70 760.50 L 424.20 759.10 L 420.90 757.30 L 417.60 755.00 L 414.30 752.10 L 411.30 748.90 L 408.80 745.70 L 407.00 742.40 L 405.50 739.00 L 404.60 735.80 L 404.30 732.90 L 404.40 730.70 L 404.90 728.70 L 406.90 725.50 L 410.00 723.50 L 411.90 722.90 L 414.10 722.70 L 417.10 722.90 L 420.20 723.70 L 423.70 725.00 L 427.10 726.80 L 430.40 729.10 L 433.70 732.00 Z" group-id="1,5,17" node-id="191" target-height="38.7" target-width="39.4" target-x="404.3" target-y="722.7"/></g><path fill="#c2bdfc" fill-rule="nonzero" stroke="none" d="M 488.90 758.40 L 491.90 761.60 L 494.40 764.90 L 496.30 768.10 L 497.70 771.60 L 498.60 774.70 L 498.90 777.70 L 498.80 779.90 L 497.50 783.50 L 496.30 785.00 L 493.20 787.10 L 489.10 787.80 L 486.20 787.60 L 483.00 786.90 L 479.50 785.50 L 476.10 783.70 L 472.80 781.40 L 469.50 778.60 L 466.50 775.30 L 464.10 772.10 L 462.20 768.80 L 460.70 765.40 L 459.80 762.20 L 459.50 759.30 L 459.70 757.10 L 461.00 753.50 L 462.10 752.00 L 465.20 749.90 L 469.30 749.10 L 472.30 749.30 L 475.50 750.10 L 479.00 751.40 L 482.30 753.20 L 485.60 755.50 L 488.90 758.40 Z" group-id="1,5,18" node-id="196" target-height="38.7" target-width="39.4" target-x="459.5" target-y="749.1"/></g><path fill="#c2bdfc" fill-rule="nonzero" stroke="none" d="M 786.50 684.70 L 786.50 708.80 L 725.80 739.10 L 725.80 715.00 Z" group-id="1" node-id="200" target-height="54.4" target-width="60.7" target-x="725.8" target-y="684.7"/><path fill="#c2bdfc" fill-rule="nonzero" stroke="none" d="M 786.50 725.60 L 786.50 749.60 L 725.80 779.90 L 725.80 755.90 Z" group-id="1" node-id="202" target-height="54.3" target-width="60.7" target-x="725.8" target-y="725.6"/><g node-id="293"><path fill="url(#SVGID_4_)" fill-rule="nonzero" stroke="none" d="M 179.20 729.40 L 118.40 698.80 L 118.40 678.40 L 179.20 709.00 Z" group-id="1,6" node-id="206" target-height="51" target-width="60.8" target-x="118.4" target-y="678.4"/><path fill="url(#SVGID_5_)" fill-rule="nonzero" stroke="none" d="M 179.20 698.80 L 118.40 668.10 L 118.40 647.70 L 179.20 678.40 Z" group-id="1,6" node-id="208" target-height="51.1" target-width="60.8" target-x="118.4" target-y="647.7"/></g></g><path fill="url(#SVGID_6_)" fill-rule="nonzero" stroke="none" d="M 227.80 557.60 L 578.70 398.90 L 548.40 386.10 L 188.70 538.70 Z" node-id="212" target-height="171.5" target-width="390" target-x="188.7" target-y="386.1"/><path fill="url(#SVGID_7_)" fill-rule="nonzero" stroke="none" d="M 349.30 618.90 L 700.10 460.20 L 669.90 447.30 L 310.20 599.90 Z" node-id="214" target-height="171.6" target-width="389.9" target-x="310.2" target-y="447.3"/><path fill="url(#SVGID_8_)" fill-rule="nonzero" stroke="none" d="M 495.00 680.20 L 845.90 521.50 L 815.60 508.60 L 455.90 661.20 Z" node-id="216" target-height="171.6" target-width="390" target-x="455.9" target-y="508.6"/><g node-id="289"><path fill="url(#SVGID_9_)" fill-rule="nonzero" stroke="none" d="M 561.00 188.20 L 215.60 338.40 L 215.60 552.90 L 561.00 402.70 Z" group-id="2" node-id="220" target-height="364.7" target-width="345.4" target-x="215.6" target-y="188.2"/><path fill="#a9a9ff" fill-rule="nonzero" stroke="none" d="M 580.00 106.90 L 196.60 273.60 L 196.60 511.70 L 580.00 345.00 Z" group-id="2" node-id="222" target-height="404.8" target-width="383.4" target-x="196.6" target-y="106.9"/><g node-id="294"><path fill="#fff" fill-opacity=".5" fill-rule="nonzero" stroke="none" d="M 220.90 308.80 L 220.90 329.20 L 555.70 183.60 L 555.70 163.20 Z" group-id="2,7" node-id="226" target-height="166" target-width="334.8" target-x="220.9" target-y="163.2"/></g><g node-id="295"><path fill="#fff" fill-opacity=".5" fill-rule="nonzero" stroke="none" d="M 220.90 359.80 L 220.90 380.30 L 555.70 234.70 L 555.70 214.30 Z" group-id="2,8" node-id="231" target-height="166" target-width="334.8" target-x="220.9" target-y="214.3"/></g><path fill="url(#SVGID_10_)" fill-rule="nonzero" stroke="none" d="M 373.50 395.60 L 373.50 416.00 L 555.70 336.80 L 555.70 316.40 Z" group-id="2" node-id="234" target-height="99.6" target-width="182.2" target-x="373.5" target-y="316.4"/><path fill="url(#SVGID_11_)" fill-rule="nonzero" stroke="none" d="M 324.90 365.70 L 324.90 386.10 L 555.70 285.80 L 555.70 265.30 Z" group-id="2" node-id="236" target-height="120.8" target-width="230.8" target-x="324.9" target-y="265.3"/></g><g node-id="290"><path fill="url(#SVGID_12_)" fill-rule="nonzero" stroke="none" d="M 682.50 249.50 L 337.10 399.70 L 337.10 614.20 L 682.50 464.00 Z" group-id="3" node-id="241" target-height="364.7" target-width="345.4" target-x="337.1" target-y="249.5"/><path fill="#bdbdff" fill-rule="nonzero" stroke="none" d="M 701.50 168.20 L 318.10 334.90 L 318.10 573.00 L 701.50 406.30 Z" group-id="3" node-id="243" target-height="404.8" target-width="383.4" target-x="318.1" target-y="168.2"/><g node-id="296"><path fill="#fff" fill-opacity=".5" fill-rule="nonzero" stroke="none" d="M 342.40 370.00 L 342.40 390.50 L 677.20 244.90 L 677.20 224.50 Z" group-id="3,9" node-id="247" target-height="166" target-width="334.8" target-x="342.4" target-y="224.5"/></g><g node-id="297"><path fill="#fff" fill-opacity=".5" fill-rule="nonzero" stroke="none" d="M 342.40 421.10 L 342.40 441.50 L 677.20 296.00 L 677.20 275.50 Z" group-id="3,10" node-id="252" target-height="166" target-width="334.8" target-x="342.4" target-y="275.5"/></g><path fill="url(#SVGID_13_)" fill-rule="nonzero" stroke="none" d="M 495.00 456.90 L 495.00 477.30 L 677.20 398.10 L 677.20 377.70 Z" group-id="3" node-id="255" target-height="99.6" target-width="182.2" target-x="495" target-y="377.7"/><g node-id="298"><path fill="#fff" fill-opacity=".5" fill-rule="nonzero" stroke="none" d="M 446.40 427.00 L 446.40 447.40 L 677.20 347.00 L 677.20 326.60 Z" group-id="3,11" node-id="259" target-height="120.8" target-width="230.8" target-x="446.4" target-y="326.6"/></g></g><g node-id="291"><path fill="url(#SVGID_14_)" fill-rule="nonzero" stroke="none" d="M 828.30 310.80 L 482.80 461.00 L 482.80 675.50 L 828.30 525.30 Z" group-id="4" node-id="265" target-height="364.7" target-width="345.5" target-x="482.8" target-y="310.8"/><path fill="#d3d2ff" fill-rule="nonzero" stroke="none" d="M 847.30 229.50 L 463.80 396.20 L 463.80 634.20 L 847.30 467.60 Z" group-id="4" node-id="267" target-height="404.7" target-width="383.5" target-x="463.8" target-y="229.5"/><g node-id="299"><path fill="#fff" fill-opacity=".5" fill-rule="nonzero" stroke="none" d="M 488.10 431.30 L 488.10 451.80 L 823.00 306.20 L 823.00 285.80 Z" group-id="4,12" node-id="271" target-height="166" target-width="334.9" target-x="488.1" target-y="285.8"/></g><g node-id="300"><path fill="#fff" fill-opacity=".5" fill-rule="nonzero" stroke="none" d="M 488.10 482.40 L 488.10 502.80 L 823.00 357.30 L 823.00 336.80 Z" group-id="4,13" node-id="276" target-height="166" target-width="334.9" target-x="488.1" target-y="336.8"/></g><g node-id="301"><path fill="#fff" fill-opacity=".5" fill-rule="nonzero" stroke="none" d="M 640.80 518.20 L 640.80 538.60 L 823.00 459.40 L 823.00 439.00 Z" group-id="4,14" node-id="281" target-height="99.6" target-width="182.2" target-x="640.8" target-y="439"/></g><path fill="#fff" fill-opacity=".5" fill-rule="nonzero" stroke="none" d="M 592.20 488.20 L 592.20 508.70 L 823.00 408.30 L 823.00 387.90 Z" group-id="4,15" node-id="286" target-height="120.8" target-width="230.8" target-x="592.2" target-y="387.9"/></g></svg>