<svg xmlns="http://www.w3.org/2000/svg" xmlns:xlink="http://www.w3.org/1999/xlink" xml:space="preserve" style="enable-background:new 0 0 1024 1024" id="图层_1" x="0" y="0" version="1.1" viewBox="0 0 1024 1024"><style type="text/css">.st0{fill:url(#SVGID_1_)}.st1{fill:url(#SVGID_2_)}.st2{opacity:.5}.st3{fill:#5747db}.st4{fill:url(#SVGID_3_)}.st5{fill:url(#SVGID_4_)}.st6{fill:#b1a9f7}.st7{fill:url(#SVGID_5_)}.st8{fill:url(#SVGID_6_)}.st9{fill:#7c72ed}.st10{fill:url(#SVGID_7_)}.st11{fill:url(#SVGID_8_)}.st12{fill:#6655d7}.st13{fill:url(#SVGID_9_)}.st14{fill:#8b80fb}.st15{fill:#c2bdfc}.st16{fill:#4c43bf}.st17{fill:url(#SVGID_10_)}.st18{fill:url(#SVGID_11_)}.st19{fill:url(#SVGID_12_)}.st20{fill:url(#SVGID_13_)}.st21{fill:url(#SVGID_14_)}.st22{fill:url(#SVGID_15_)}.st23{fill:url(#SVGID_16_)}.st24{fill:url(#SVGID_17_)}.st25{fill:url(#SVGID_18_)}.st26{fill:url(#SVGID_19_)}.st27{fill:url(#SVGID_20_)}.st28{fill:url(#SVGID_21_)}.st29{fill:url(#SVGID_22_)}.st30{fill:url(#SVGID_23_)}.st31{fill:url(#SVGID_24_)}.st32{fill:url(#SVGID_25_)}.st33{fill:url(#SVGID_26_)}.st34{fill:url(#SVGID_27_)}.st35{fill:url(#SVGID_28_)}.st36{fill:url(#SVGID_29_)}.st37{fill:url(#SVGID_30_)}</style><g><g><linearGradient id="SVGID_1_" x1="499.47" x2="964.407" y1="700.193" y2="700.193" gradientUnits="userSpaceOnUse"><stop style="stop-color:#c5bafe" offset=".005"/><stop style="stop-color:#7d6ff8" offset="1"/></linearGradient><path d="M964.4,535.1l-0.2,40.9l-0.8,85v0.8c-0.1,0.7-0.2,1.4-0.3,2.1c-0.1,1-0.2,2.1-0.5,3.1c0,0.2,0,0.4-0.1,0.6 c-0.2,0.7-0.5,1.3-0.7,2c-0.3,0.9-0.7,2-1.1,3c-0.1,0.2-0.2,0.4-0.3,0.6c-0.3,0.6-0.7,1.2-1.1,1.8c-0.7,1.1-1.2,2.1-1.9,3.1 c-0.3,0.3-0.3,0.5-0.5,0.8c-0.3,0.5-0.9,0.9-1.3,1.5c-0.9,1.2-1.9,2.3-3.1,3.5c-0.3,0.4-0.5,0.7-0.8,1c-0.8,0.8-1.7,1.5-2.6,2.3 c-0.3,0.3-0.6,0.5-0.9,0.8c-1.4,1.3-3,2.5-4.7,3.7c-0.3,0.1-0.6,0.3-0.8,0.5c-1.2,0.8-2.7,1.6-4.1,2.5c-1.2,0.7-2.3,1.5-3.7,2.2 c-1.5,0.8-3.1,1.6-4.7,2.4c-1.1,0.6-2.2,1.2-3.3,1.7c-0.5,0.3-1.1,0.5-1.6,0.8l-332.6,147c-3.9,1.7-8.1,3.3-12.4,4.7 c-1.2,0.4-2.4,0.8-3.7,1.2c-3.3,1.1-6.7,2.1-10.2,3c-0.8,0.2-1.6,0.5-2.3,0.7c-0.5,0.1-1,0.2-1.5,0.3c-2.2,0.5-4.5,0.9-6.7,1.5 c-1.8,0.4-3.4,0.7-5.2,1.1c-2.4,0.4-4.8,0.8-7.2,1.1c-1.4,0.3-2.8,0.5-4.2,0.7c-0.3,0.1-0.5,0.1-0.8,0.1 c-4.9,0.7-9.9,1.2-14.9,1.6c-0.3,0.1-0.7,0.1-1.1,0.1c-1.2,0.1-2.4,0.1-3.6,0.2c-2.9,0.2-5.9,0.3-8.9,0.4c-0.7,0-1.4,0.1-2.1,0.1 h-8.3V739.5c1.9,0,3.8,0,5.7-0.1c1.8,0,3.7-0.1,5.7-0.1c3-0.1,5.9-0.3,8.9-0.4c1.5-0.1,3.1-0.2,4.7-0.3c5-0.4,10-0.9,14.9-1.6 c1.7-0.2,3.3-0.5,4.9-0.8c2.5-0.3,4.9-0.7,7.3-1.1c1.7-0.3,3.4-0.7,5.1-1.1c2.3-0.4,4.6-1,6.8-1.5c1.2-0.3,2.5-0.7,3.7-1 c3.5-0.9,7-1.9,10.3-3c1.2-0.4,2.5-0.8,3.7-1.2c4.2-1.5,8.4-3,12.4-4.7l332.5-147c1.7-0.8,3.3-1.6,5-2.4c1.6-0.8,3.2-1.6,4.7-2.4 c1.2-0.8,2.4-1.5,3.7-2.2c1.3-0.8,2.7-1.7,4-2.5c2-1.4,3.9-2.7,5.6-4.1c0.3-0.3,0.6-0.5,0.8-0.8c1.2-1.1,2.4-2.2,3.5-3.4 c1.2-1.1,2.2-2.3,3.1-3.5c0.6-0.7,1.2-1.5,1.7-2.2c0.8-1,1.3-2,1.9-3.1c0.5-0.8,1-1.6,1.3-2.4c0.5-1,0.8-2,1.2-3 c0.2-0.9,0.6-1.7,0.8-2.5c0.2-1.1,0.3-2.2,0.5-3.2C964.2,537,964.3,536,964.4,535.1z" class="st0"/><linearGradient id="SVGID_2_" x1="66.396" x2="499.47" y1="704.979" y2="704.979" gradientUnits="userSpaceOnUse"><stop style="stop-color:#c5bafe" offset=".005"/><stop style="stop-color:#7d6ff8" offset="1"/></linearGradient><path d="M499.5,739.5v125.8h-2.4c-0.9,0-1.8,0.1-2.7,0c-1.1,0-2.2-0.1-3.3-0.1c-2.2-0.1-4.4-0.1-6.6-0.3 c-1-0.1-2-0.1-3-0.1c-1-0.1-2.1-0.2-3.1-0.3c-2.2-0.2-4.4-0.4-6.6-0.6c-1-0.1-2.1-0.1-3.1-0.3c-0.9-0.1-1.8-0.3-2.8-0.4 c-2.3-0.3-4.6-0.6-6.9-0.9c-1.1-0.2-2.2-0.3-3.3-0.4c-0.7-0.1-1.4-0.3-2.2-0.4c-2.7-0.4-5.4-0.9-8.1-1.5c-1.2-0.2-2.3-0.4-3.4-0.6 c-0.4-0.1-0.7-0.3-1.2-0.3c-4.7-1.1-9.5-2.3-14.1-3.6c-0.3-0.1-0.5-0.1-0.7-0.2c-2.1-0.6-4-1.3-5.9-2c-1.2-0.4-2.3-0.7-3.4-1.1 c-3.3-1.2-6.6-2.5-9.7-3.8l-302-136.8c-25.9-11.3-38.8-26.3-38.7-41.1l0.7-76.9l0.2-49c0,1.9,0.2,3.7,0.6,5.6 c0.4,1.9,1,3.7,1.8,5.6c1.6,3.7,4,7.3,7.2,10.8c6.5,7,16.1,13.6,29.1,19.3l302,136.8c3.1,1.4,6.3,2.7,9.6,3.8 c1.2,0.4,2.3,0.8,3.4,1.1c2.2,0.8,4.4,1.5,6.7,2.2c4.6,1.3,9.2,2.5,14.1,3.6l4.5,0.9c2.7,0.5,5.4,1,8.2,1.5 c1.8,0.3,3.7,0.6,5.4,0.8c2.3,0.3,4.7,0.6,7,0.9c1.9,0.3,3.9,0.4,5.8,0.6c2.2,0.3,4.4,0.4,6.6,0.6c2,0.2,4.1,0.3,6.1,0.4 c2.2,0.1,4.4,0.2,6.7,0.3c2,0,4,0.1,6,0.1H499.5z" class="st1"/><g class="st2"><path d="M964.4,538.7l-0.2,33.7c0,16.2-26.6,28.5-38,33.6l-332.5,147c-26,11.5-60.2,17.1-94.2,16.9 c-33.1-0.2-66.1-5.8-91.4-16.9L106.1,616c-10.2-4.5-39-14.4-39-29.6l0.2-38.2c0,1.9,0.2,3.7,0.6,5.6c0.4,1.9,1,3.7,1.8,5.6 c1.6,3.7,4,7.3,7.2,10.8c6.5,7,16.1,13.6,29.1,19.3l302,136.8c3.1,1.4,6.3,2.7,9.6,3.8c1.2,0.4,2.3,0.8,3.4,1.1 c2.2,0.8,4.4,1.5,6.7,2.2c4.6,1.3,9.2,2.5,14.1,3.6l4.5,0.9c2.7,0.5,5.4,1,8.2,1.5c1.8,0.3,3.7,0.6,5.4,0.8 c2.3,0.3,4.7,0.6,7,0.9c1.9,0.3,3.9,0.4,5.8,0.6c2.2,0.3,4.4,0.4,6.6,0.6c2,0.2,4.1,0.3,6.1,0.4c2.2,0.1,4.4,0.2,6.7,0.3 c2,0,4,0.1,6,0.1h1.5c1.9,0,3.8,0,5.7-0.1c1.8,0,3.7-0.1,5.7-0.1c3-0.1,5.9-0.3,8.9-0.4c1.5-0.1,3.1-0.2,4.7-0.3 c5-0.4,10-0.9,14.9-1.6c1.7-0.2,3.3-0.5,4.9-0.8c2.5-0.3,4.9-0.7,7.3-1.1c1.7-0.3,3.4-0.7,5.1-1.1c2.3-0.4,4.6-1,6.8-1.5 c1.2-0.3,2.5-0.7,3.7-1c3.5-0.9,7-1.9,10.3-3c1.2-0.4,2.5-0.8,3.7-1.2c4.2-1.5,8.4-3,12.4-4.7l332.5-147c1.7-0.8,3.3-1.6,5-2.4 c1.6-0.8,3.2-1.6,4.7-2.4c1.2-0.8,2.4-1.5,3.7-2.2c1.3-0.8,2.7-1.7,4-2.5c2-1.4,3.9-2.7,5.6-4.1c0.3-0.3,0.6-0.5,0.8-0.8 c1.2-1.1,2.4-2.2,3.5-3.4c1.2-1.1,2.2-2.3,3.1-3.5c0.6-0.7,1.2-1.5,1.7-2.2c0.8-1,1.3-2,1.9-3.1c0.5-0.8,1-1.6,1.3-2.4 c0.5-1,0.8-2,1.2-3c0.2-0.9,0.6-1.7,0.8-2.5c0.2-1.1,0.3-2.2,0.5-3.2C964.2,540.6,964.3,539.6,964.4,538.7z" class="st3"/></g><g><linearGradient id="SVGID_3_" x1="515.851" x2="515.851" y1="775.987" y2="350.352" gradientUnits="userSpaceOnUse"><stop style="stop-color:#c1b7fe" offset=".005"/><stop style="stop-color:#fff" offset="1"/></linearGradient><path d="M925.6,502.3c51.4,22.6,51.7,59.2,0.6,81.7L593.7,731c-51.1,22.6-134.2,22.6-185.6,0l-302-136.8 c-51.4-22.6-51.7-59.2-0.6-81.7l332.6-147c51.1-22.6,134.2-22.6,185.6,0L925.6,502.3z" class="st4"/></g><g><linearGradient id="SVGID_4_" x1="67.331" x2="964.371" y1="539.827" y2="539.827" gradientUnits="userSpaceOnUse"><stop style="stop-color:#c1b7fe" offset=".005"/><stop style="stop-color:#7d6ff8" offset="1"/></linearGradient><path d="M925.6,493.9c51.4,22.6,51.7,59.2,0.6,81.7l-332.6,147c-51.1,22.6-134.2,22.6-185.6,0l-302-136.8 c-51.4-22.6-51.7-59.2-0.6-81.7l332.6-147c51.1-22.6,134.2-22.6,185.6,0L925.6,493.9z" class="st5"/></g><polygon points="713.9 752.6 770.5 727.6 770.5 705 713.9 730" class="st6"/><g><polygon points="886.9 601.4 886.9 638.5 744.3 701.6 744.3 728.8 740 728.8 740 698.8 882.6 635.6 882.6 603.4" class="st6"/></g></g><g><path d="M67.1,585.6c0,0,0-7.4,0-7.4c0,12.9,16,21.2,18.3,22.4l237.3,105.2c8,3.5,14.4,9.5,18.4,16.8c0,0,0,0,0,0 c3.2,5.7,4.9,12.2,4.9,19v28.9c0,17.7,10.4,33.9,26.4,41.3c27.3,12.6,79.9,33.7,125.4,33.8c0.1,0,0.2,0,0.3,0c0.4,0,0.7,0,1,0 c63.1-0.4,122-32.9,122.5-33.2l108.7-53v-19.9h-4.4v17.2l-106.3,51.9c-0.6,0.3-58.6,32.3-120.5,32.7c-0.4,0-0.7,0-1,0 c-0.1,0-0.2,0-0.3,0c-44.7-0.1-96.7-20.9-123.6-33.4c-14.5-6.7-23.9-21.4-23.9-37.3v-28.9c0-5.7-1.1-11.2-3.2-16.3 c-4.2-10.4-12.2-18.9-22.8-23.6L87.4,596.7c-6.4-3.1-20.3-12.7-20.2-25v4.9L67.1,585.6z" class="st6"/></g><g><linearGradient id="SVGID_5_" x1="417.68" x2="628.399" y1="341.858" y2="341.858" gradientUnits="userSpaceOnUse"><stop style="stop-color:#8574fd" offset=".005"/><stop style="stop-color:#715ef5" offset="1"/></linearGradient><path d="M417.7,225.4v185.2c0,26.4,47.2,47.8,105.4,47.8s105.4-21.4,105.4-47.8V225.4H417.7z" class="st7"/><linearGradient id="SVGID_6_" x1="417.68" x2="628.399" y1="385.172" y2="385.172" gradientUnits="userSpaceOnUse"><stop style="stop-color:#7263f3" offset=".005"/><stop style="stop-color:#5042d3" offset="1"/></linearGradient><path d="M523,395.6c-58.2,0-105.4-21.4-105.4-47.8v26.9c0,26.4,47.2,47.8,105.4,47.8s105.4-21.4,105.4-47.8v-26.9 C628.4,374.2,581.2,395.6,523,395.6z" class="st8"/><path d="M523,422.5c-58.2,0-105.4-21.4-105.4-47.8v9c0,26.4,47.2,47.8,105.4,47.8s105.4-21.4,105.4-47.8v-9 C628.4,401.1,581.2,422.5,523,422.5z" class="st9"/><path d="M523,386.7c-58.2,0-105.4-21.4-105.4-47.8v9c0,26.4,47.2,47.8,105.4,47.8s105.4-21.4,105.4-47.8v-9 C628.4,365.3,581.2,386.7,523,386.7z" class="st9"/><linearGradient id="SVGID_7_" x1="417.68" x2="628.399" y1="307.506" y2="307.506" gradientUnits="userSpaceOnUse"><stop style="stop-color:#7263f3" offset=".005"/><stop style="stop-color:#5042d3" offset="1"/></linearGradient><path d="M523,318c-58.2,0-105.4-21.4-105.4-47.8v26.9c0,26.4,47.2,47.8,105.4,47.8s105.4-21.4,105.4-47.8v-26.9 C628.4,296.6,581.2,318,523,318z" class="st10"/><path d="M523,344.8c-58.2,0-105.4-21.4-105.4-47.8v9c0,26.4,47.2,47.8,105.4,47.8s105.4-21.4,105.4-47.8v-9 C628.4,323.4,581.2,344.8,523,344.8z" class="st9"/><path d="M523,309c-58.2,0-105.4-21.4-105.4-47.8v9c0,26.4,47.2,47.8,105.4,47.8s105.4-21.4,105.4-47.8v-9 C628.4,287.6,581.2,309,523,309z" class="st9"/><linearGradient id="SVGID_8_" x1="417.68" x2="628.399" y1="225.36" y2="225.36" gradientUnits="userSpaceOnUse"><stop style="stop-color:#c5bafe" offset=".005"/><stop style="stop-color:#e9e6fc" offset="1"/></linearGradient><ellipse cx="523" cy="225.4" class="st11" rx="105.4" ry="47.8"/><g><ellipse cx="523" cy="222.4" class="st12" rx="49.6" ry="22.5"/><linearGradient id="SVGID_9_" x1="473.458" x2="572.62" y1="225.36" y2="225.36" gradientUnits="userSpaceOnUse"><stop style="stop-color:#8b7ffd" offset=".005"/><stop style="stop-color:#8a80fb" offset="1"/></linearGradient><ellipse cx="523" cy="225.4" class="st13" rx="49.6" ry="22.5"/></g><ellipse cx="609.7" cy="422.7" class="st6" rx="7.8" ry="5.9" transform="matrix(0.334 -0.9426 0.9426 0.334 7.6971 856.215)"/><ellipse cx="442.4" cy="425.6" class="st6" rx="5.9" ry="7.8" transform="matrix(0.9426 -0.334 0.334 0.9426 -116.7537 172.181)"/><g><path d="M594.3,315h-3.1v-14.4l0.9-0.4c0.1,0,7.7-3.3,13.8-6.8c4.6-2.7,7.5-5,8.5-6v-38.3l3.1-3v42.5l-0.5,0.4 c-0.1,0.1-3.3,3.2-9.6,6.8c-5,2.9-10.9,5.6-13.2,6.5V315z" class="st6"/></g><path d="M578.8,318.2v7.5c10.8-3.1,20.2-7,27.9-11.5v-7.4C598.8,311.2,589.4,315,578.8,318.2z" class="st14"/><path d="M470.4,360v7.5c-10.8-3.1-20.2-7-27.9-11.5v-7.4C450.4,353,459.8,356.8,470.4,360z" class="st15"/><path d="M443.1,314.9c-10.8-5.3-20.6-18.1-25.4-23.3v3.3c4.4,5.1,13,17.1,24,22.6l14.7,7.3v30.3 c1,0.4,2.1,0.8,3.1,1.2V323L443.1,314.9z" class="st6"/></g><g><ellipse cx="612.1" cy="327.7" class="st15" rx="12.4" ry="7.9" transform="matrix(0.3483 -0.9374 0.9374 0.3483 91.72 787.2982)"/><ellipse cx="612.6" cy="326.9" class="st16" rx="12.4" ry="7.9" transform="matrix(0.3483 -0.9374 0.9374 0.3483 92.7515 787.2786)"/></g><g><ellipse cx="452.5" cy="327.4" class="st15" rx="7.9" ry="12.4" transform="matrix(0.991 -0.1337 0.1337 0.991 -39.7133 63.4475)"/><ellipse cx="452.1" cy="326.5" class="st16" rx="7.9" ry="12.4" transform="matrix(0.991 -0.1337 0.1337 0.991 -39.6034 63.3966)"/></g><g><ellipse cx="612.1" cy="298" class="st15" rx="12.4" ry="7.9" transform="matrix(0.3483 -0.9374 0.9374 0.3483 119.5093 767.9778)"/><ellipse cx="612.6" cy="297.3" class="st16" rx="12.4" ry="7.9" transform="matrix(0.3483 -0.9374 0.9374 0.3483 120.5409 767.9581)"/></g><g><ellipse cx="452.5" cy="297.7" class="st15" rx="7.9" ry="12.4" transform="matrix(0.991 -0.1337 0.1337 0.991 -35.7488 63.1812)"/><ellipse cx="452.1" cy="296.9" class="st16" rx="7.9" ry="12.4" transform="matrix(0.991 -0.1337 0.1337 0.991 -35.6389 63.1303)"/></g><linearGradient id="SVGID_10_" x1="232.146" x2="799.6" y1="409.968" y2="409.968" gradientUnits="userSpaceOnUse"><stop style="stop-color:#7d6ff8" offset="0"/><stop style="stop-color:#ddd9fd" offset=".473"/><stop style="stop-color:#7d6ff8" offset=".5"/><stop style="stop-color:#c5bafe" offset=".995"/></linearGradient><path d="M771.7,364.6l-153.5-71c-2.2-1-4.8-0.5-6.5,1.3l-0.1,0.1c-2.5,2.8-1.6,7.1,1.8,8.7l151.3,70 c13.5,5.9,20.9,13.5,21,21.3c0,7.7-7.3,15.2-20.6,21.1l-209.7,92.6c-30.2,13.4-79.6,13.4-110,0L267,426.2 c-13.5-5.9-20.9-13.5-20.9-21.3c0-7.7,7.3-15.2,20.6-21.1l186.3-82.3c2.8-1.2,4.1-4.4,2.9-7.2c0,0,0-0.1,0-0.1 c-1.2-2.8-4.5-4.1-7.3-2.9l-188.8,83.4c-17.7,7.8-27.5,18.6-27.5,30.2c0,11.7,9.9,22.5,27.9,30.4l178.4,82.6 c17.1,7.5,39.6,11.3,62,11.3c22.4,0,44.9-3.8,61.9-11.3l209.7-92.6c17.8-7.8,27.5-18.6,27.5-30.3 C799.6,383.3,789.7,372.5,771.7,364.6z" class="st17"/><linearGradient id="SVGID_11_" x1="232.146" x2="799.6" y1="439.613" y2="439.613" gradientUnits="userSpaceOnUse"><stop style="stop-color:#7d6ff8" offset="0"/><stop style="stop-color:#ddd9fd" offset=".473"/><stop style="stop-color:#7d6ff8" offset=".5"/><stop style="stop-color:#c5bafe" offset=".995"/></linearGradient><path d="M771.7,394.2l-153.5-71c-2.2-1-4.8-0.5-6.5,1.3l-0.1,0.1c-2.5,2.8-1.6,7.1,1.8,8.7l151.3,70 c13.5,5.9,20.9,13.5,21,21.3c0,7.7-7.3,15.2-20.6,21.1l-209.7,92.6c-30.2,13.4-79.6,13.4-110,0L267,455.8 c-13.5-5.9-20.9-13.5-20.9-21.3c0-7.7,7.3-15.2,20.6-21.1l186.3-82.3c2.8-1.2,4.1-4.4,2.9-7.2c0,0,0-0.1,0-0.1 c-1.2-2.8-4.5-4.1-7.3-2.9l-188.8,83.4c-17.7,7.8-27.5,18.6-27.5,30.2c0,11.7,9.9,22.5,27.9,30.4l178.4,82.6 c17.1,7.5,39.6,11.3,62,11.3c22.4,0,44.9-3.8,61.9-11.3l209.7-92.6c17.8-7.8,27.5-18.6,27.5-30.3 C799.6,412.9,789.7,402.1,771.7,394.2z" class="st18"/><g><linearGradient id="SVGID_12_" x1="708.845" x2="919.565" y1="451.668" y2="451.668" gradientUnits="userSpaceOnUse"><stop style="stop-color:#8574fd" offset=".005"/><stop style="stop-color:#715ef5" offset="1"/></linearGradient><path d="M708.8,335.2v185.2c0,26.4,47.2,47.8,105.4,47.8c58.2,0,105.4-21.4,105.4-47.8V335.2H708.8z" class="st19"/><linearGradient id="SVGID_13_" x1="708.845" x2="919.565" y1="494.982" y2="494.982" gradientUnits="userSpaceOnUse"><stop style="stop-color:#7263f3" offset=".005"/><stop style="stop-color:#5042d3" offset="1"/></linearGradient><path d="M814.2,505.4c-58.2,0-105.4-21.4-105.4-47.8v26.9c0,26.4,47.2,47.8,105.4,47.8c58.2,0,105.4-21.4,105.4-47.8 v-26.9C919.6,484,872.4,505.4,814.2,505.4z" class="st20"/><path d="M814.2,532.3c-58.2,0-105.4-21.4-105.4-47.8v9c0,26.4,47.2,47.8,105.4,47.8c58.2,0,105.4-21.4,105.4-47.8v-9 C919.6,510.9,872.4,532.3,814.2,532.3z" class="st9"/><path d="M814.2,496.5c-58.2,0-105.4-21.4-105.4-47.8v9c0,26.4,47.2,47.8,105.4,47.8c58.2,0,105.4-21.4,105.4-47.8v-9 C919.6,475.1,872.4,496.5,814.2,496.5z" class="st9"/><linearGradient id="SVGID_14_" x1="708.845" x2="919.565" y1="417.316" y2="417.316" gradientUnits="userSpaceOnUse"><stop style="stop-color:#7263f3" offset=".005"/><stop style="stop-color:#5042d3" offset="1"/></linearGradient><path d="M814.2,427.8c-58.2,0-105.4-21.4-105.4-47.8v26.9c0,26.4,47.2,47.8,105.4,47.8c58.2,0,105.4-21.4,105.4-47.8 V380C919.6,406.4,872.4,427.8,814.2,427.8z" class="st21"/><path d="M814.2,454.7c-58.2,0-105.4-21.4-105.4-47.8v9c0,26.4,47.2,47.8,105.4,47.8c58.2,0,105.4-21.4,105.4-47.8v-9 C919.6,433.3,872.4,454.7,814.2,454.7z" class="st9"/><path d="M814.2,418.8c-58.2,0-105.4-21.4-105.4-47.8v9c0,26.4,47.2,47.8,105.4,47.8c58.2,0,105.4-21.4,105.4-47.8v-9 C919.6,397.4,872.4,418.8,814.2,418.8z" class="st9"/><linearGradient id="SVGID_15_" x1="708.845" x2="919.565" y1="335.17" y2="335.17" gradientUnits="userSpaceOnUse"><stop style="stop-color:#c5bafe" offset=".005"/><stop style="stop-color:#e9e6fc" offset="1"/></linearGradient><ellipse cx="814.2" cy="335.2" class="st22" rx="105.4" ry="47.8"/><g><ellipse cx="814.2" cy="332.2" class="st12" rx="49.6" ry="22.5"/><linearGradient id="SVGID_16_" x1="764.624" x2="863.786" y1="335.17" y2="335.17" gradientUnits="userSpaceOnUse"><stop style="stop-color:#8b7ffd" offset=".005"/><stop style="stop-color:#8a80fb" offset="1"/></linearGradient><ellipse cx="814.2" cy="335.2" class="st23" rx="49.6" ry="22.5"/></g><ellipse cx="900.9" cy="532.5" class="st6" rx="7.8" ry="5.9" transform="matrix(0.334 -0.9426 0.9426 0.334 98.1172 1203.7999)"/><ellipse cx="733.5" cy="535.5" class="st6" rx="5.9" ry="7.8" transform="matrix(0.9426 -0.334 0.334 0.9426 -136.7093 275.7264)"/><g><path d="M885.5,424.8h-3.1v-14.4l0.9-0.4c0.1,0,7.7-3.3,13.8-6.8c4.6-2.7,7.5-5,8.5-6V359l3.1-3v42.5l-0.5,0.4 c-0.1,0.1-3.3,3.2-9.6,6.8c-5,2.9-10.9,5.6-13.2,6.5V424.8z" class="st6"/></g><path d="M870,428v7.5c10.8-3.1,20.2-7,27.9-11.5v-7.4C889.9,421,880.5,424.8,870,428z" class="st14"/><path d="M761.5,469.8v7.5c-10.8-3.1-20.2-7-27.9-11.5v-7.4C741.6,462.8,751,466.6,761.5,469.8z" class="st15"/><path d="M734.3,424.7c-10.8-5.3-20.6-18.1-25.4-23.3v3.3c4.4,5.1,13,17.1,24,22.6l14.7,7.3v30.3 c1,0.4,2.1,0.8,3.1,1.2v-33.3L734.3,424.7z" class="st6"/></g><g><linearGradient id="SVGID_17_" x1="126.785" x2="337.505" y1="463.125" y2="463.125" gradientUnits="userSpaceOnUse"><stop style="stop-color:#8574fd" offset=".005"/><stop style="stop-color:#715ef5" offset="1"/></linearGradient><path d="M126.8,346.6v185.2c0,26.4,47.2,47.8,105.4,47.8s105.4-21.4,105.4-47.8V346.6H126.8z" class="st24"/><linearGradient id="SVGID_18_" x1="126.785" x2="337.505" y1="506.439" y2="506.439" gradientUnits="userSpaceOnUse"><stop style="stop-color:#7263f3" offset=".005"/><stop style="stop-color:#5042d3" offset="1"/></linearGradient><path d="M232.1,516.9c-58.2,0-105.4-21.4-105.4-47.8V496c0,26.4,47.2,47.8,105.4,47.8s105.4-21.4,105.4-47.8v-26.9 C337.5,495.5,290.3,516.9,232.1,516.9z" class="st25"/><path d="M232.1,543.8c-58.2,0-105.4-21.4-105.4-47.8v9c0,26.4,47.2,47.8,105.4,47.8s105.4-21.4,105.4-47.8v-9 C337.5,522.4,290.3,543.8,232.1,543.8z" class="st9"/><path d="M232.1,507.9c-58.2,0-105.4-21.4-105.4-47.8v9c0,26.4,47.2,47.8,105.4,47.8s105.4-21.4,105.4-47.8v-9 C337.5,486.5,290.3,507.9,232.1,507.9z" class="st9"/><linearGradient id="SVGID_19_" x1="126.785" x2="337.505" y1="428.773" y2="428.773" gradientUnits="userSpaceOnUse"><stop style="stop-color:#7263f3" offset=".005"/><stop style="stop-color:#5042d3" offset="1"/></linearGradient><path d="M232.1,439.2c-58.2,0-105.4-21.4-105.4-47.8v26.9c0,26.4,47.2,47.8,105.4,47.8s105.4-21.4,105.4-47.8v-26.9 C337.5,417.8,290.3,439.2,232.1,439.2z" class="st26"/><path d="M232.1,466.1c-58.2,0-105.4-21.4-105.4-47.8v9c0,26.4,47.2,47.8,105.4,47.8s105.4-21.4,105.4-47.8v-9 C337.5,444.7,290.3,466.1,232.1,466.1z" class="st9"/><path d="M232.1,430.3c-58.2,0-105.4-21.4-105.4-47.8v9c0,26.4,47.2,47.8,105.4,47.8s105.4-21.4,105.4-47.8v-9 C337.5,408.9,290.3,430.3,232.1,430.3z" class="st9"/><linearGradient id="SVGID_20_" x1="126.785" x2="337.505" y1="346.627" y2="346.627" gradientUnits="userSpaceOnUse"><stop style="stop-color:#c5bafe" offset=".005"/><stop style="stop-color:#e9e6fc" offset="1"/></linearGradient><ellipse cx="232.1" cy="346.6" class="st27" rx="105.4" ry="47.8"/><g><ellipse cx="232.1" cy="343.6" class="st12" rx="49.6" ry="22.5"/><linearGradient id="SVGID_21_" x1="182.563" x2="281.726" y1="346.627" y2="346.627" gradientUnits="userSpaceOnUse"><stop style="stop-color:#8b7ffd" offset=".005"/><stop style="stop-color:#8a80fb" offset="1"/></linearGradient><ellipse cx="232.1" cy="346.6" class="st28" rx="49.6" ry="22.5"/></g><ellipse cx="318.8" cy="543.9" class="st6" rx="7.8" ry="5.9" transform="matrix(0.334 -0.9426 0.9426 0.334 -300.3521 662.7898)"/><ellipse cx="151.5" cy="546.9" class="st6" rx="5.9" ry="7.8" transform="matrix(0.9426 -0.334 0.334 0.9426 -173.9552 81.9936)"/><g><path d="M303.4,436.2h-3.1v-14.4l0.9-0.4c0.1,0,7.7-3.3,13.8-6.8c4.6-2.7,7.5-5,8.5-6v-38.3l3.1-3V410l-0.5,0.4 c-0.1,0.1-3.3,3.2-9.6,6.8c-5,2.9-10.9,5.6-13.2,6.5V436.2z" class="st6"/></g><path d="M287.9,439.4v7.5c10.8-3.1,20.2-7,27.9-11.5V428C307.9,432.4,298.5,436.3,287.9,439.4z" class="st14"/><path d="M179.5,481.2v7.5c-10.8-3.1-20.2-7-27.9-11.5v-7.4C159.5,474.2,168.9,478.1,179.5,481.2z" class="st15"/><path d="M152.2,436.1c-10.8-5.3-20.6-18.1-25.4-23.3v3.3c4.4,5.1,13,17.1,24,22.6l14.7,7.3v30.3 c1,0.4,2.1,0.8,3.1,1.2v-33.3L152.2,436.1z" class="st6"/></g><g><ellipse cx="274.9" cy="466.4" class="st15" rx="11.2" ry="13.6" transform="matrix(0.9985 -5.486648e-02 5.486648e-02 0.9985 -25.1775 15.7832)"/><ellipse cx="275.5" cy="465.8" class="st16" rx="11.2" ry="13.6" transform="matrix(0.9985 -5.486648e-02 5.486648e-02 0.9985 -25.1413 15.8179)"/></g><g><ellipse cx="764.4" cy="453.2" class="st15" rx="11.2" ry="13.6" transform="matrix(0.9685 -0.2491 0.2491 0.9685 -88.7915 204.6958)"/><ellipse cx="764.9" cy="452.4" class="st16" rx="11.2" ry="13.6" transform="matrix(0.9685 -0.2491 0.2491 0.9685 -88.5867 204.7994)"/></g><g><ellipse cx="274.9" cy="436.8" class="st15" rx="11.2" ry="13.6" transform="matrix(0.9985 -5.486648e-02 5.486648e-02 0.9985 -23.551 15.7386)"/><ellipse cx="275.5" cy="436.1" class="st16" rx="11.2" ry="13.6" transform="matrix(0.9985 -5.486648e-02 5.486648e-02 0.9985 -23.5148 15.7733)"/></g><g><ellipse cx="764.4" cy="423.5" class="st15" rx="11.2" ry="13.6" transform="matrix(0.9685 -0.2491 0.2491 0.9685 -81.4066 203.7612)"/><ellipse cx="764.9" cy="422.8" class="st16" rx="11.2" ry="13.6" transform="matrix(0.9685 -0.2491 0.2491 0.9685 -81.2018 203.8648)"/></g><linearGradient id="SVGID_22_" x1="270.979" x2="527.587" y1="509.83" y2="509.83" gradientUnits="userSpaceOnUse"><stop style="stop-color:#7d6ff8" offset="0"/><stop style="stop-color:#ddd9fd" offset=".473"/><stop style="stop-color:#7d6ff8" offset=".5"/><stop style="stop-color:#c5bafe" offset=".995"/></linearGradient><path d="M527.6,546.2c-27.6,4.5-59.9,1.9-82.2-7.9l-166.5-77c-2.6-1.2-5.7-0.2-7.2,2.2l0,0c-1.7,2.9-0.5,6.6,2.5,8 l164.2,76c17.1,7.5,39.6,11.3,62,11.3c9.2,0,18.3-0.7,27.1-1.9V546.2z" class="st29"/><linearGradient id="SVGID_23_" x1="456.541" x2="759.702" y1="588.47" y2="454.063" gradientUnits="userSpaceOnUse"><stop style="stop-color:#7d6ff8" offset="0"/><stop style="stop-color:#c5bafe" offset=".995"/></linearGradient><path d="M772.8,448.7L772.8,448.7c-1.1-3.1-4.6-4.5-7.6-3.2c-29.9,13.4-172.8,76.6-195.6,86.7 c-1.9,0.8-3.2,2.7-3.3,4.7c-0.2,3.1-0.5,6.2-0.7,9.3c0,0,172.8-76.4,204.2-90.3C772.5,454.6,773.8,451.5,772.8,448.7z" class="st30"/><linearGradient id="SVGID_24_" x1="272.438" x2="529.047" y1="479.416" y2="479.416" gradientUnits="userSpaceOnUse"><stop style="stop-color:#7d6ff8" offset="0"/><stop style="stop-color:#ddd9fd" offset=".473"/><stop style="stop-color:#7d6ff8" offset=".5"/><stop style="stop-color:#c5bafe" offset=".995"/></linearGradient><path d="M529,515.8c-27.6,4.5-59.9,1.9-82.2-7.9l-166.5-77c-2.6-1.2-5.7-0.2-7.2,2.2l0,0c-1.7,2.9-0.5,6.6,2.5,8 l164.2,76c17.1,7.5,39.6,11.3,62,11.3c9.2,0,18.3-0.7,27.1-1.9V515.8z" class="st31"/><linearGradient id="SVGID_25_" x1="453.147" x2="756.308" y1="560.729" y2="426.323" gradientUnits="userSpaceOnUse"><stop style="stop-color:#7d6ff8" offset="0"/><stop style="stop-color:#c5bafe" offset=".995"/></linearGradient><path d="M769.4,420.9L769.4,420.9c-1.1-3.1-4.6-4.5-7.6-3.2c-29.9,13.4-172.8,76.6-195.6,86.7 c-1.9,0.8-3.2,2.7-3.3,4.7c-0.2,3.1-0.5,6.2-0.7,9.3c0,0,172.8-76.4,204.2-90.3C769.1,426.9,770.4,423.7,769.4,420.9z" class="st32"/><g><linearGradient id="SVGID_26_" x1="390.946" x2="601.666" y1="580.222" y2="580.222" gradientUnits="userSpaceOnUse"><stop style="stop-color:#8574fd" offset=".005"/><stop style="stop-color:#715ef5" offset="1"/></linearGradient><path d="M390.9,463.7v185.2c0,26.4,47.2,47.8,105.4,47.8s105.4-21.4,105.4-47.8V463.7H390.9z" class="st33"/><linearGradient id="SVGID_27_" x1="390.946" x2="601.666" y1="623.536" y2="623.536" gradientUnits="userSpaceOnUse"><stop style="stop-color:#7263f3" offset=".005"/><stop style="stop-color:#5042d3" offset="1"/></linearGradient><path d="M496.3,634c-58.2,0-105.4-21.4-105.4-47.8v26.9c0,26.4,47.2,47.8,105.4,47.8s105.4-21.4,105.4-47.8v-26.9 C601.7,612.6,554.5,634,496.3,634z" class="st34"/><path d="M496.3,660.9c-58.2,0-105.4-21.4-105.4-47.8v9c0,26.4,47.2,47.8,105.4,47.8s105.4-21.4,105.4-47.8v-9 C601.7,639.5,554.5,660.9,496.3,660.9z" class="st9"/><path d="M496.3,625c-58.2,0-105.4-21.4-105.4-47.8v9c0,26.4,47.2,47.8,105.4,47.8s105.4-21.4,105.4-47.8v-9 C601.7,603.6,554.5,625,496.3,625z" class="st9"/><linearGradient id="SVGID_28_" x1="390.946" x2="601.666" y1="545.87" y2="545.87" gradientUnits="userSpaceOnUse"><stop style="stop-color:#7263f3" offset=".005"/><stop style="stop-color:#5042d3" offset="1"/></linearGradient><path d="M496.3,556.3c-58.2,0-105.4-21.4-105.4-47.8v26.9c0,26.4,47.2,47.8,105.4,47.8s105.4-21.4,105.4-47.8v-26.9 C601.7,534.9,554.5,556.3,496.3,556.3z" class="st35"/><path d="M496.3,583.2c-58.2,0-105.4-21.4-105.4-47.8v9c0,26.4,47.2,47.8,105.4,47.8s105.4-21.4,105.4-47.8v-9 C601.7,561.8,554.5,583.2,496.3,583.2z" class="st9"/><path d="M496.3,547.4c-58.2,0-105.4-21.4-105.4-47.8v9c0,26.4,47.2,47.8,105.4,47.8s105.4-21.4,105.4-47.8v-9 C601.7,526,554.5,547.4,496.3,547.4z" class="st9"/><linearGradient id="SVGID_29_" x1="390.946" x2="601.666" y1="463.724" y2="463.724" gradientUnits="userSpaceOnUse"><stop style="stop-color:#c5bafe" offset=".005"/><stop style="stop-color:#e9e6fc" offset="1"/></linearGradient><ellipse cx="496.3" cy="463.7" class="st36" rx="105.4" ry="47.8"/><g><ellipse cx="496.3" cy="460.7" class="st12" rx="49.6" ry="22.5"/><linearGradient id="SVGID_30_" x1="446.725" x2="545.887" y1="463.724" y2="463.724" gradientUnits="userSpaceOnUse"><stop style="stop-color:#8b7ffd" offset=".005"/><stop style="stop-color:#8a80fb" offset="1"/></linearGradient><ellipse cx="496.3" cy="463.7" class="st37" rx="49.6" ry="22.5"/></g><ellipse cx="583" cy="661" class="st6" rx="7.8" ry="5.9" transform="matrix(0.334 -0.9426 0.9426 0.334 -234.7861 989.7745)"/><ellipse cx="415.6" cy="664" class="st6" rx="5.9" ry="7.8" transform="matrix(0.9426 -0.334 0.334 0.9426 -197.8949 176.9389)"/><g><path d="M567.6,553.3h-3.1v-14.4l0.9-0.4c0.1,0,7.7-3.3,13.8-6.8c4.6-2.7,7.5-5,8.5-6v-38.3l3.1-3v42.5l-0.5,0.4 c-0.1,0.1-3.3,3.2-9.6,6.8c-5,2.9-10.9,5.6-13.2,6.5V553.3z" class="st6"/></g><path d="M552.1,556.5v7.5c10.8-3.1,20.2-7,27.9-11.5v-7.4C572,549.5,562.6,553.4,552.1,556.5z" class="st14"/><path d="M443.6,598.3v7.5c-10.8-3.1-20.2-7-27.9-11.5v-7.4C423.7,591.3,433.1,595.2,443.6,598.3z" class="st15"/><path d="M416.4,553.2c-10.8-5.3-20.6-18.1-25.4-23.3v3.3c4.4,5.1,13,17.1,24,22.6l14.7,7.3v30.3 c1,0.4,2.1,0.8,3.1,1.2v-33.3L416.4,553.2z" class="st6"/></g></g></svg>