<svg xmlns="http://www.w3.org/2000/svg" xmlns:xlink="http://www.w3.org/1999/xlink" width="1024" height="1024" node-id="1" sillyvg="true" template-height="1024" template-width="1024" version="1.1" viewBox="0 0 1024 1024"><defs node-id="89"><linearGradient id="SVGID_1_" x1="119.922" x2="903.049" y1="349.521" y2="349.521" gradientUnits="objectBoundingBox" node-id="6" spreadMethod="pad"><stop offset=".005" stop-color="#c1b7fe"/><stop offset="1" stop-color="#7d6ff8"/></linearGradient><linearGradient id="SVGID_2_" x1="726.625" x2="637.634" y1="290.96" y2="484.554" gradientUnits="objectBoundingBox" node-id="10" spreadMethod="pad"><stop offset=".005" stop-color="#c5bafe"/><stop offset="1" stop-color="#7d6ff8"/></linearGradient><linearGradient id="SVGID_3_" x1="161.534" x2="504.877" y1="441.657" y2="426.889" gradientUnits="objectBoundingBox" node-id="14" spreadMethod="pad"><stop offset="0" stop-color="#7d6ff8"/><stop offset=".995" stop-color="#c5bafe"/></linearGradient><linearGradient id="SVGID_4_" x1="449.267" x2="811.809" y1="214.053" y2="214.053" gradientUnits="objectBoundingBox" node-id="20" spreadMethod="pad"><stop offset=".005" stop-color="#bcacff"/><stop offset="1" stop-color="#7864ff"/></linearGradient><linearGradient id="SVGID_5_" x1="449.267" x2="760.058" y1="354.865" y2="354.865" gradientUnits="objectBoundingBox" node-id="24" spreadMethod="pad"><stop offset=".005" stop-color="#bcacff"/><stop offset="1" stop-color="#7864ff"/></linearGradient><linearGradient id="SVGID_6_" x1="785.933" x2="785.933" y1="532.784" y2="216.981" gradientUnits="objectBoundingBox" node-id="28" spreadMethod="pad"><stop offset="0" stop-color="#7864ff"/><stop offset=".995" stop-color="#bcacff"/></linearGradient><linearGradient id="SVGID_7_" x1="333.817" x2="696.359" y1="278.485" y2="278.485" gradientUnits="objectBoundingBox" node-id="33" spreadMethod="pad"><stop offset=".005" stop-color="#dde7ff"/><stop offset="1" stop-color="#999fff"/></linearGradient><linearGradient id="SVGID_8_" x1="333.817" x2="644.608" y1="414.823" y2="414.823" gradientUnits="objectBoundingBox" node-id="37" spreadMethod="pad"><stop offset=".005" stop-color="#dde7ff"/><stop offset="1" stop-color="#999fff"/></linearGradient><linearGradient id="SVGID_9_" x1="670.484" x2="670.484" y1="345.233" y2="597.947" gradientUnits="objectBoundingBox" node-id="41" spreadMethod="pad"><stop offset=".005" stop-color="#dde7ff"/><stop offset="1" stop-color="#999fff"/></linearGradient><linearGradient id="SVGID_10_" x1="216.345" x2="578.888" y1="332.758" y2="332.758" gradientUnits="objectBoundingBox" node-id="46" spreadMethod="pad"><stop offset=".005" stop-color="#ffe7ff"/><stop offset="1" stop-color="#d99fff"/></linearGradient><linearGradient id="SVGID_11_" x1="216.345" x2="527.136" y1="468.526" y2="468.526" gradientUnits="objectBoundingBox" node-id="50" spreadMethod="pad"><stop offset=".005" stop-color="#ffe7ff"/><stop offset="1" stop-color="#d99fff"/></linearGradient><linearGradient id="SVGID_12_" x1="553.012" x2="553.012" y1="641.898" y2="337.31" gradientUnits="objectBoundingBox" node-id="54" spreadMethod="pad"><stop offset="0" stop-color="#d99fff"/><stop offset=".995" stop-color="#ffe7ff"/></linearGradient><linearGradient id="SVGID_13_" x1="119.922" x2="903.049" y1="663.097" y2="663.097" gradientUnits="objectBoundingBox" node-id="59" spreadMethod="pad"><stop offset=".005" stop-color="#c1b7fe"/><stop offset="1" stop-color="#7d6ff8"/></linearGradient><linearGradient id="SVGID_14_" x1="191.896" x2="479.954" y1="868.449" y2="660.407" gradientUnits="objectBoundingBox" node-id="63" spreadMethod="pad"><stop offset=".005" stop-color="#6052e9"/><stop offset="1" stop-color="#8071fe"/></linearGradient><linearGradient id="SVGID_15_" x1="511.486" x2="903.049" y1="779.032" y2="779.032" gradientUnits="objectBoundingBox" node-id="67" spreadMethod="pad"><stop offset=".005" stop-color="#6052e9"/><stop offset="1" stop-color="#8071fe"/></linearGradient><linearGradient id="SVGID_16_" x1="119.922" x2="903.049" y1="508.329" y2="508.329" gradientUnits="objectBoundingBox" node-id="76" spreadMethod="pad"><stop offset=".005" stop-color="#c1b7fe"/><stop offset="1" stop-color="#7d6ff8"/></linearGradient><linearGradient id="SVGID_17_" x1="191.896" x2="479.954" y1="673.564" y2="465.522" gradientUnits="objectBoundingBox" node-id="80" spreadMethod="pad"><stop offset=".005" stop-color="#c5bafe"/><stop offset="1" stop-color="#7d6ff8"/></linearGradient><linearGradient id="SVGID_18_" x1="511.486" x2="903.049" y1="584.148" y2="584.148" gradientUnits="objectBoundingBox" node-id="84" spreadMethod="pad"><stop offset=".005" stop-color="#c5bafe"/><stop offset="1" stop-color="#7d6ff8"/></linearGradient></defs><g node-id="266"><path fill="url(#SVGID_1_)" fill-rule="nonzero" stroke="none" d="M 511.50 268.80 L 119.90 422.10 L 154.30 426.50 L 519.00 289.80 L 876.20 430.30 L 903.00 422.10 Z" group-id="1" node-id="204" target-height="161.5" target-width="783.1" target-x="119.9" target-y="268.8"/><path fill="url(#SVGID_2_)" fill-rule="nonzero" stroke="none" d="M 880.00 430.30 L 554.10 575.50 L 511.50 559.40 L 511.50 286.00 Z" group-id="1" node-id="206" target-height="289.5" target-width="368.5" target-x="511.5" target-y="286"/><path fill="url(#SVGID_3_)" fill-rule="nonzero" stroke="none" d="M 511.50 286.00 L 511.50 559.40 L 488.40 568.20 L 154.30 426.50 Z" group-id="1" node-id="208" target-height="282.2" target-width="357.2" target-x="154.3" target-y="286"/></g><g node-id="267"><g node-id="269"><path fill="url(#SVGID_4_)" fill-rule="nonzero" stroke="none" d="M 760.10 285.70 L 811.80 262.70 L 504.60 142.40 L 449.30 164.00 Z" group-id="2,4" node-id="215" target-height="143.3" target-width="362.5" target-x="449.3" target-y="142.4"/><path fill="url(#SVGID_5_)" fill-rule="nonzero" stroke="none" d="M 449.30 164.00 L 449.30 414.30 L 760.10 545.70 L 760.10 285.40 Z" group-id="2,4" node-id="217" target-height="381.7" target-width="310.8" target-x="449.3" target-y="164"/><path fill="url(#SVGID_6_)" fill-rule="nonzero" stroke="none" d="M 760.10 285.70 L 760.10 546.80 L 811.80 513.70 L 811.80 262.70 Z" group-id="2,4" node-id="219" target-height="284.1" target-width="51.7" target-x="760.1" target-y="262.7"/></g><g node-id="270"><path fill="url(#SVGID_7_)" fill-rule="nonzero" stroke="none" d="M 644.60 350.20 L 696.40 327.10 L 389.10 206.80 L 333.80 228.50 Z" group-id="2,5" node-id="224" target-height="143.4" target-width="362.6" target-x="333.8" target-y="206.8"/><path fill="url(#SVGID_8_)" fill-rule="nonzero" stroke="none" d="M 333.80 228.50 L 333.80 479.50 L 644.60 601.20 L 644.60 350.20 Z" group-id="2,5" node-id="226" target-height="372.7" target-width="310.8" target-x="333.8" target-y="228.5"/><path fill="url(#SVGID_9_)" fill-rule="nonzero" stroke="none" d="M 644.60 350.20 L 644.60 601.20 L 696.40 578.10 L 696.40 327.10 Z" group-id="2,5" node-id="228" target-height="274.1" target-width="51.8" target-x="644.6" target-y="327.1"/></g><g node-id="271"><path fill="url(#SVGID_10_)" fill-rule="nonzero" stroke="none" d="M 527.10 404.40 L 578.90 381.40 L 271.70 261.10 L 216.30 282.70 Z" group-id="2,6" node-id="233" target-height="143.3" target-width="362.6" target-x="216.3" target-y="261.1"/><path fill="url(#SVGID_11_)" fill-rule="nonzero" stroke="none" d="M 216.30 282.70 L 216.30 533.00 L 527.10 654.30 L 527.10 404.10 Z" group-id="2,6" node-id="235" target-height="371.6" target-width="310.8" target-x="216.3" target-y="282.7"/><path fill="url(#SVGID_12_)" fill-rule="nonzero" stroke="none" d="M 527.10 404.40 L 527.10 655.50 L 578.90 632.40 L 578.90 381.40 Z" group-id="2,6" node-id="237" target-height="274.1" target-width="51.8" target-x="527.1" target-y="381.4"/></g></g><g node-id="268"><path fill="url(#SVGID_13_)" fill-rule="nonzero" stroke="none" d="M 903.00 617.60 L 511.50 792.00 L 119.90 617.60 L 130.30 613.50 L 289.90 540.90 L 307.10 534.20 L 511.50 625.30 L 715.90 534.20 L 733.10 540.90 L 892.70 613.50 L 898.20 615.70 Z" group-id="3" node-id="243" target-height="257.8" target-width="783.1" target-x="119.9" target-y="534.2"/><path fill="url(#SVGID_14_)" fill-rule="nonzero" stroke="none" d="M 119.90 617.60 L 119.90 766.00 L 511.50 940.50 L 511.50 792.00 Z" group-id="3" node-id="245" target-height="322.9" target-width="391.6" target-x="119.9" target-y="617.6"/><path fill="url(#SVGID_15_)" fill-rule="nonzero" stroke="none" d="M 903.00 617.60 L 903.00 766.00 L 511.50 940.50 L 511.50 792.00 Z" group-id="3" node-id="247" target-height="322.9" target-width="391.5" target-x="511.5" target-y="617.6"/><path fill="#c2bdfc" fill-rule="nonzero" stroke="none" d="M 753.30 720.10 L 753.30 740.40 L 695.80 766.10 L 695.80 745.80 Z" group-id="3" node-id="249" target-height="46" target-width="57.5" target-x="695.8" target-y="720.1"/><path fill="#c2bdfc" fill-rule="nonzero" stroke="none" d="M 753.30 763.30 L 753.30 783.70 L 695.80 809.30 L 695.80 789.00 Z" group-id="3" node-id="251" target-height="46" target-width="57.5" target-x="695.8" target-y="763.3"/><g node-id="272"><path fill="#5747db" fill-rule="nonzero" stroke="none" d="M 119.90 442.40 L 119.90 590.90 L 511.50 765.30 L 511.50 616.90 Z" group-id="3,7" node-id="255" target-height="322.9" target-width="391.6" target-x="119.9" target-y="442.4"/><path fill="#5747db" fill-rule="nonzero" stroke="none" d="M 903.00 442.40 L 903.00 590.90 L 511.50 765.30 L 511.50 616.90 Z" group-id="3,7" node-id="257" target-height="322.9" target-width="391.5" target-x="511.5" target-y="442.4"/></g><path fill="url(#SVGID_16_)" fill-rule="nonzero" stroke="none" d="M 903.00 422.70 L 511.50 597.10 L 119.90 422.70 L 154.30 419.50 L 511.50 576.20 L 862.30 421.90 Z" group-id="3" node-id="260" target-height="177.6" target-width="783.1" target-x="119.9" target-y="419.5"/><path fill="url(#SVGID_17_)" fill-rule="nonzero" stroke="none" d="M 119.90 422.70 L 119.90 571.10 L 511.50 745.60 L 511.50 597.10 Z" group-id="3" node-id="262" target-height="322.9" target-width="391.6" target-x="119.9" target-y="422.7"/><path fill="url(#SVGID_18_)" fill-rule="nonzero" stroke="none" d="M 903.00 422.70 L 903.00 571.10 L 511.50 745.60 L 511.50 597.10 Z" group-id="3" node-id="264" target-height="322.9" target-width="391.5" target-x="511.5" target-y="422.7"/></g></svg>