<svg xmlns="http://www.w3.org/2000/svg" xmlns:xlink="http://www.w3.org/1999/xlink" id="图层_1" viewBox="0 0 1024 1024"><defs><style>.cls-1{fill:url(#未命名的渐变_132)}.cls-2{fill:url(#未命名的渐变_15)}.cls-3{fill:url(#未命名的渐变_29)}.cls-4{fill:url(#未命名的渐变_15-2)}.cls-5{fill:url(#未命名的渐变_29-2)}.cls-6{fill:url(#未命名的渐变_15-3)}.cls-7{fill:url(#未命名的渐变_138)}.cls-8{fill:url(#未命名的渐变_133)}.cls-10,.cls-9{opacity:.36}.cls-9{fill:url(#未命名的渐变_152)}.cls-10{fill:url(#未命名的渐变_154)}.cls-11{fill:url(#未命名的渐变_29-3)}.cls-12{fill:url(#未命名的渐变_27)}.cls-13{fill:#7ba6ff}.cls-14{fill:url(#未命名的渐变_279)}</style><radialGradient id="未命名的渐变_132" cx="-4442.54" cy="-3110.58" r="319.37" gradientTransform="matrix(1.1, -0.02, 0.03, 1.59, 5622.75, 5375.51)" gradientUnits="userSpaceOnUse"><stop offset=".74" stop-color="#cbdffe"/><stop offset=".96" stop-color="#94b3ed"/></radialGradient><linearGradient id="未命名的渐变_15" x1="-4952.54" x2="-3932.54" y1="-3091.22" y2="-3091.22" gradientTransform="translate(3682.71 -3930.54) rotate(-90)" gradientUnits="userSpaceOnUse"><stop offset="0" stop-color="#eef4ff"/><stop offset="1" stop-color="#cfe2fe"/></linearGradient><linearGradient id="未命名的渐变_29" x1="-4838.28" x2="-4046.81" y1="-3091.22" y2="-3091.22" gradientTransform="translate(3682.71 -3930.54) rotate(-90)" gradientUnits="userSpaceOnUse"><stop offset="0" stop-color="#71a0ff"/><stop offset=".49" stop-color="#82abff"/><stop offset="1" stop-color="#71a0ff"/></linearGradient><linearGradient id="未命名的渐变_15-2" x1="-4735.27" x2="-4149.82" y1="-3091.22" y2="-3091.22" xlink:href="#未命名的渐变_15"/><linearGradient id="未命名的渐变_29-2" x1="-4622.36" x2="-4262.73" y1="-3091.22" y2="-3091.22" xlink:href="#未命名的渐变_29"/><linearGradient id="未命名的渐变_15-3" x1="-4525.75" x2="-4359.34" y1="-3091.22" y2="-3091.22" xlink:href="#未命名的渐变_15"/><linearGradient id="未命名的渐变_138" x1="-5331.86" x2="-5189.1" y1="-3533.05" y2="-3533.05" gradientTransform="matrix(0, -0.86, 1.05, 0, 3797.73, -3989.35)" gradientUnits="userSpaceOnUse"><stop offset=".06" stop-color="#4b87ff"/><stop offset=".41" stop-color="#1a66ff"/><stop offset=".93" stop-color="#7ba6ff"/></linearGradient><linearGradient id="未命名的渐变_133" x1="-2810.74" x2="-2669.4" y1="-238.23" y2="-238.23" gradientTransform="translate(2605.3 -1238.79) rotate(-45.04)" gradientUnits="userSpaceOnUse"><stop offset=".3" stop-color="#4b87ff"/><stop offset=".54" stop-color="#1a66ff"/><stop offset=".8" stop-color="#4683ff"/></linearGradient><linearGradient id="未命名的渐变_152" x1="-2728.33" x2="-2721.57" y1="-297.39" y2="-238.61" gradientTransform="translate(2605.3 -1238.79) rotate(-45.04)" gradientUnits="userSpaceOnUse"><stop offset="0" stop-color="#fff" stop-opacity=".4"/><stop offset="1" stop-color="#fff" stop-opacity="0"/></linearGradient><linearGradient id="未命名的渐变_154" x1="-2781.59" x2="-2730.27" y1="-223.94" y2="-218.34" xlink:href="#未命名的渐变_152"/><linearGradient id="未命名的渐变_29-3" x1="-3107.9" x2="-3019.65" y1="-559.84" y2="-559.84" gradientTransform="translate(2605.3 -1238.79) rotate(-45.04)" xlink:href="#未命名的渐变_29"/><linearGradient id="未命名的渐变_27" x1="-2752.73" x2="-2729.88" y1="-3343.08" y2="-3343.08" gradientTransform="matrix(0, -1.73, 1, 0, 3615.44, -4212.75)" gradientUnits="userSpaceOnUse"><stop offset="0" stop-color="#4b87ff"/><stop offset=".51" stop-color="#1a66ff"/><stop offset="1" stop-color="#4683ff"/></linearGradient><linearGradient id="未命名的渐变_279" x1="-2752.74" x2="-2729.88" y1="-3571.58" y2="-3571.58" gradientTransform="matrix(0, -1.73, 1, 0, 3615.44, -4212.75)" gradientUnits="userSpaceOnUse"><stop offset="0" stop-color="#fff"/><stop offset="1" stop-color="#fff" stop-opacity="0"/></linearGradient></defs><ellipse cx="643.6" cy="512" class="cls-1" rx="341.7" ry="510"/><ellipse cx="591.49" cy="512" class="cls-2" rx="341.7" ry="510"/><ellipse cx="591.49" cy="512" class="cls-3" rx="265.15" ry="395.74"/><ellipse cx="591.49" cy="512" class="cls-4" rx="192.53" ry="292.73"/><ellipse cx="591.49" cy="512" class="cls-5" rx="108.94" ry="179.81"/><ellipse cx="591.49" cy="512" class="cls-6" rx="46.73" ry="83.2"/><path d="M127,478.4l31.35,54.39-31.27,54.45c-2.42,4.21-7.59,6.9-13.27,6.91l-68.07.05c-4.94,0-8.2-4.21-6.1-7.87l30.72-53.47L39.55,479.43c-2.11-3.66,1.14-7.87,6.08-7.88l68.07-.05C119.38,471.5,124.55,474.18,127,478.4Z" class="cls-7"/><path d="M594.23,537.71l-116,64.66a6.15,6.15,0,0,1-4.82.65,6.72,6.72,0,0,1-4.3-10.23l3.39-4.82,31.75-44.43L491,541.17v-2.85l0-16.25,12.91-2.57-34.67-48.31c-4.23-5.88,2.55-13.51,9-9.94l115.92,64.49A6.84,6.84,0,0,1,594.23,537.71Z" class="cls-8"/><path d="M469.3,471.21l34.63,48.31L491,522.05l.42,4.32s9.71-1.37,14.47-2.44,5.72-3.16,1.78-8.9c-11.61-16-39.94-48.79-35-54.23C469.48,461.92,466.27,467,469.3,471.21Z" class="cls-9"/><path d="M512.58,543.83c-25,40.32-45.05,54.81-39.12,59.19a6.72,6.72,0,0,1-4.3-10.23l3.39-4.82,31.75-44.43L491,541.17v-2.85l.12-.24s13.39.64,19.94,2.54A2.6,2.6,0,0,1,512.58,543.83Z" class="cls-10"/><path d="M47.56,594.15H45.72c-4.94.07-8.22-4.16-6.08-7.85l30.68-53.47L39.57,479.41a4.72,4.72,0,0,1,1.09-5.94c1.2-1.33,4-1.86,4-1.86a7.36,7.36,0,0,0,.23,6l30.95,54L46.07,583.32C43,588.74,42.38,593.47,47.56,594.15Z" class="cls-11"/><path d="M44.74,512.19l0,39.53,455.74-.32v-.06a1.18,1.18,0,0,0,.31,0c3.34,0,6-8.85,6-19.77s-2.73-19.77-6.07-19.76a1.57,1.57,0,0,0-.3.05v-.05Z" class="cls-12"/><ellipse cx="44.75" cy="531.96" class="cls-13" rx="6.05" ry="19.77"/><path d="M50.8,532c0,12-3.29,21.47-7,19.52h0c2.45,0,6-8.58,6.17-20.89.15-10.82-2.78-18.4-5.23-18.39h0C47.79,512.18,50.79,519.93,50.8,532Z" class="cls-14"/></svg>